<svg height="640pt" viewBox="-20 -21 640.00663 640" width="640pt" xmlns="http://www.w3.org/2000/svg"><path d="m510.511719 16.859375-144.90625-13.832031c-43.601563-4.148438-87.507813-4.148438-131.109375 0l-144.425782 13.832031c-41.851562.058594-78.160156 28.902344-87.6875 69.648437-9.535156 40.753907 10.210938 82.710938 47.691407 101.324219.03125.460938.089843.914063.183593 1.363281l22.359376 111.789063c11.238281 56.617187 9.851562 115.023437-4.070313 171.046875l-18.167969 72.691406c-.199218.789063-.296875 1.609375-.304687 2.425782.035156 27.597656 22.402343 49.964843 49.996093 49.992187h399.949219c27.597657-.027344 49.964844-22.394531 49.992188-49.992187 0-.816407-.101563-1.636719-.296875-2.425782l-18.175782-72.734375c-13.925781-56.019531-15.3125-114.425781-4.070312-171.050781l21.253906-106.324219c30.296875-8.492187 51.246094-36.09375 51.285156-67.546875v-20c.011719-49.546875-39.953124-89.832031-89.496093-90.207031zm69.496093 110.207031c-.023437 27.671875-22.453124 50.105469-50.128906 50.128906-5.121094.019532-9.398437 3.902344-9.910156 8.992188-.511719 5.09375 2.898438 9.753906 7.910156 10.796875l-20 99.984375c-11.820312 59.53125-10.355468 120.933594 4.28125 179.832031l17.855469 71.492188c-.609375 16.113281-13.859375 28.867187-29.996094 28.851562h-399.949219c-16.132812.015625-29.382812-12.738281-29.996093-28.851562l17.867187-71.453125c14.636719-58.898438 16.101563-120.300782 4.28125-179.832032l-19.949218-99.816406h17.796874c5.523438 0 10-4.476562 10-9.996094 0-5.523437-4.476562-10-10-10-38.765624-.273437-69.972656-31.925781-69.691406-70.695312.273438-38.769531 31.921875-69.972656 70.691406-69.699219l145.324219-13.863281c42.339844-4.042969 84.964844-4.042969 127.304688 0l145.324219 13.863281h.996093c38.683594.097657 70 31.488281 69.988281 70.171875zm0 0"/><path d="m417.710938 359.234375c-4.78125-2.761719-10.898438-1.125-13.65625 3.660156l-79.988282 138.542969c-2.722656 4.773438-1.070312 10.851562 3.6875 13.601562 4.761719 2.75 10.84375 1.136719 13.628906-3.605468l79.988282-138.539063c2.757812-4.785156 1.125-10.898437-3.660156-13.660156zm0 0"/><path d="m452.347656 379.230469c-4.78125-2.757813-10.894531-1.125-13.660156 3.660156l-79.988281 138.542969c-2.714844 4.773437-1.070313 10.855468 3.691406 13.601562 4.757813 2.75 10.847656 1.136719 13.625-3.601562l79.992187-138.542969c2.761719-4.785156 1.121094-10.898437-3.660156-13.660156zm0 0"/></svg>